<svg viewBox="0 0 64 72"><path d="M60.034 33.795l-26-23.984c-1.15-1.06-2.92-1.06-4.068 0l-26 23.985c-1.218 1.123-1.294 3.02-.17 4.24 1.122 1.216 3.02 1.295 4.238.17l2.265-2.09 6.808 24.683C17.468 62.098 18.65 63 20 63h24c1.35 0 2.533-.9 2.892-2.202l6.81-24.683 2.264 2.09c.576.532 1.306.795 2.033.795.808 0 1.614-.325 2.205-.966 1.124-1.218 1.047-3.116-.17-4.24zM32 53c-1.657 0-3-1.342-3-3 0-1.656 1.343-3 3-3s3 1.344 3 3c0 1.658-1.343 3-3 3zm0-11c-3.866 0-7-3.133-7-6.998 0-3.867 3.134-7 7-7s7 3.133 7 7C39 38.867 35.866 42 32 42z"></path></svg>