<svg viewBox="0 0 58 72"><path d="M47.594 21.745c-1.216-2.624-3.06-4.84-5.355-6.51l.052-.153c.863-2.373-.447-5.026-2.924-5.928-2.48-.902-5.188.288-6.05 2.66l-.058.153c-.387-.027-.775-.052-1.163-.052-7.805 0-14.575 5.36-17.667 13.99-3.212 8.963-9.247 13.91-9.3 13.953-.668.532-1.076 1.325-1.124 2.178-.048.853.27 1.688.875 2.29.31.31.685.55 1.096.7l35.917 13.07c.33.12.676.182 1.026.182h.023c1.657 0 3-1.343 3-3 0-.295-.042-.58-.122-.85-.22-1.422-1.07-8.41 1.89-16.41 2.123-5.75 2.082-11.53-.116-16.273zM26.355 64.206c3.4 1.235 7.1-.08 9.02-2.96L21.35 56.137c-.38 3.444 1.607 6.83 5.007 8.068z"></path></svg>